{
  "accessors": [
    {
      "bufferView": 2,
      "componentType": 5126,
      "count": 65532,
      "max": [
        0.6203939914703369,
        0.71983802318573,
        2.0132570266723633
      ],
      "min": [
        -0.6700490117073059,
        -0.34879499673843384,
        0.012249000370502472
      ],
      "type": "VEC3"
    },
    {
      "bufferView": 2,
      "byteOffset": 786384,
      "componentType": 5126,
      "count": 65532,
      "max": [
        0.9990203976631165,
        0.9999916553497314,
        0.9808446168899536
      ],
      "min": [
        -0.9999563694000244,
        -0.9999990463256836,
        -0.999103844165802
      ],
      "type": "VEC3"
    },
    {
      "bufferView": 1,
      "componentType": 5126,
      "count": 65532,
      "max": [
        0.777525007724762,
        0.9867410063743591
      ],
      "min": [
        0.0014720000326633453,
        0.138947993516922
      ],
      "type": "VEC2"
    },
    {
      "bufferView": 0,
      "componentType": 5125,
      "count": 358350,
      "type": "SCALAR"
    },
    {
      "bufferView": 2,
      "byteOffset": 1572768,
      "componentType": 5126,
      "count": 65532,
      "max": [
        0.6213629841804504,
        0.7127820253372192,
        2.11594295501709
      ],
      "min": [
        -0.6372519731521606,
        -0.34744900465011597,
        0.08442900329828262
      ],
      "type": "VEC3"
    },
    {
      "bufferView": 2,
      "byteOffset": 2359152,
      "componentType": 5126,
      "count": 65532,
      "max": [
        0.999980092048645,
        0.9998078942298889,
        0.99997878074646
      ],
      "min": [
        -0.9992297887802124,
        -0.9999983310699463,
        -0.9996351599693298
      ],
      "type": "VEC3"
    },
    {
      "bufferView": 1,
      "byteOffset": 524256,
      "componentType": 5126,
      "count": 65532,
      "max": [
        0.999925971031189,
        0.9731820225715637
      ],
      "min": [
        0.02317900024354458,
        0.00018200000340584666
      ],
      "type": "VEC2"
    },
    {
      "bufferView": 0,
      "byteOffset": 1433400,
      "componentType": 5125,
      "count": 345249,
      "type": "SCALAR"
    },
    {
      "bufferView": 2,
      "byteOffset": 3145536,
      "componentType": 5126,
      "count": 25656,
      "max": [
        0.6205480098724365,
        0.7180389761924744,
        2.0203819274902344
      ],
      "min": [
        -0.6671379804611206,
        -0.34871000051498413,
        0.012017999775707722
      ],
      "type": "VEC3"
    },
    {
      "bufferView": 2,
      "byteOffset": 3453408,
      "componentType": 5126,
      "count": 25656,
      "max": [
        0.9996153712272644,
        0.9999946355819702,
        0.9999747276306152
      ],
      "min": [
        -0.9980720281600952,
        -0.9999985694885254,
        -0.9999451637268066
      ],
      "type": "VEC3"
    },
    {
      "bufferView": 1,
      "byteOffset": 1048512,
      "componentType": 5126,
      "count": 25656,
      "max": [
        0.9990860223770142,
        0.983144998550415
      ],
      "min": [
        0.00014400000509340316,
        0.0035929998848587275
      ],
      "type": "VEC2"
    },
    {
      "bufferView": 0,
      "byteOffset": 2814396,
      "componentType": 5125,
      "count": 90039,
      "type": "SCALAR"
    }
  ],
  "asset": {
    "extras": {
      "author": "Lassi Kaukonen (https://sketchfab.com/thesidekick)",
      "license": "CC-BY-4.0 (http://creativecommons.org/licenses/by/4.0/)",
      "source": "https://sketchfab.com/3d-models/mango-f26a98cfcc9e4941b4215053a6fc855b",
      "title": "Mango"
    },
    "generator": "Sketchfab-14.7.0",
    "version": "2.0"
  },
  "bufferViews": [
    {
      "buffer": 0,
      "byteLength": 3174552,
      "name": "floatBufferViews",
      "target": 34963
    },
    {
      "buffer": 0,
      "byteLength": 1253760,
      "byteOffset": 3174552,
      "byteStride": 8,
      "name": "floatBufferViews",
      "target": 34962
    },
    {
      "buffer": 0,
      "byteLength": 3761280,
      "byteOffset": 4428312,
      "byteStride": 12,
      "name": "floatBufferViews",
      "target": 34962
    }
  ],
  "buffers": [
    {
      "byteLength": 8189592,
      "uri": "scene.bin"
    }
  ],
  "extensionsRequired": [
    "KHR_materials_pbrSpecularGlossiness"
  ],
  "extensionsUsed": [
    "KHR_materials_pbrSpecularGlossiness"
  ],
  "images": [
    {
      "uri": "textures/Mango_highpoly_diffuse.jpeg"
    },
    {
      "uri": "textures/Mango_highpoly_specularGlossiness.png"
    },
    {
      "uri": "textures/Mango_highpoly_emissive.jpeg"
    }
  ],
  "materials": [
    {
      "doubleSided": true,
      "emissiveFactor": [
        0.228572125172191,
        0.228572125172191,
        0.228572125172191
      ],
      "emissiveTexture": {
        "index": 2
      },
      "extensions": {
        "KHR_materials_pbrSpecularGlossiness": {
          "diffuseFactor": [
            1.0,
            1.0,
            1.0,
            1.0
          ],
          "diffuseTexture": {
            "index": 0
          },
          "glossinessFactor": 1.0,
          "specularFactor": [
            0.6567639063280954,
            0.6567639063280954,
            0.6567639063280954
          ],
          "specularGlossinessTexture": {
            "index": 1
          }
        }
      },
      "name": "Mango_highpoly"
    }
  ],
  "meshes": [
    {
      "name": "Object_0",
      "primitives": [
        {
          "attributes": {
            "NORMAL": 1,
            "POSITION": 0,
            "TEXCOORD_0": 2
          },
          "indices": 3,
          "material": 0,
          "mode": 4
        }
      ]
    },
    {
      "name": "Object_1",
      "primitives": [
        {
          "attributes": {
            "NORMAL": 5,
            "POSITION": 4,
            "TEXCOORD_0": 6
          },
          "indices": 7,
          "material": 0,
          "mode": 4
        }
      ]
    },
    {
      "name": "Object_2",
      "primitives": [
        {
          "attributes": {
            "NORMAL": 9,
            "POSITION": 8,
            "TEXCOORD_0": 10
          },
          "indices": 11,
          "material": 0,
          "mode": 4
        }
      ]
    }
  ],
  "nodes": [
    {
      "children": [
        1
      ],
      "matrix": [
        1.0,
        0.0,
        0.0,
        0.0,
        0.0,
        2.220446049250313e-16,
        -1.0,
        0.0,
        0.0,
        1.0,
        2.220446049250313e-16,
        0.0,
        0.0,
        0.0,
        0.0,
        1.0
      ],
      "name": "Sketchfab_model"
    },
    {
      "children": [
        2,
        3,
        4
      ],
      "name": "Mango_highpoly_SF.obj.cleaner.materialmerger.gles"
    },
    {
      "mesh": 0,
      "name": "Object_2"
    },
    {
      "mesh": 1,
      "name": "Object_3"
    },
    {
      "mesh": 2,
      "name": "Object_4"
    }
  ],
  "samplers": [
    {
      "magFilter": 9729,
      "minFilter": 9987,
      "wrapS": 10497,
      "wrapT": 10497
    }
  ],
  "scene": 0,
  "scenes": [
    {
      "name": "Sketchfab_Scene",
      "nodes": [
        0
      ]
    }
  ],
  "textures": [
    {
      "sampler": 0,
      "source": 0
    },
    {
      "sampler": 0,
      "source": 1
    },
    {
      "sampler": 0,
      "source": 2
    }
  ]
}
